HIERARCHY
ROOT Hips
{
	OFFSET -14.64140 90.27770 -84.91600
	CHANNELS 6 Xposition Yposition Zposition Zrotation Xrotation Yrotation
	JOINT Spine
	{
		OFFSET 0.00000 13.20850 -1.60436
		CHANNELS 3 Zrotation Xrotation Yrotation
		JOINT Spine1
		{
			OFFSET 0.00000 8.61716 0.00000
			CHANNELS 3 Zrotation Xrotation Yrotation
			JOINT Spine2
			{
				OFFSET 0.00000 8.61717 0.00000
				CHANNELS 3 Zrotation Xrotation Yrotation
				JOINT Spine3
				{
					OFFSET 0.00000 8.61717 0.00000
					CHANNELS 3 Zrotation Xrotation Yrotation
					JOINT Neck
					{
						OFFSET 0.00000 11.07920 1.10792
						CHANNELS 3 Zrotation Xrotation Yrotation
						JOINT Neck1
						{
							OFFSET 0.00000 7.08032 0.00000
							CHANNELS 3 Zrotation Xrotation Yrotation
							JOINT Head
							{
								OFFSET 0.00000 7.08031 0.00000
								CHANNELS 3 Zrotation Xrotation Yrotation
								End site
								{
									OFFSET 0.00000 0.00000 0.00000
								}
							}
						}
					}
					JOINT RightShoulder
					{
						OFFSET -0.01000 7.91373 5.19711
						CHANNELS 3 Zrotation Xrotation Yrotation
						JOINT RightArm
						{
							OFFSET -18.41580 0.00000 0.00000
							CHANNELS 3 Zrotation Xrotation Yrotation
							JOINT RightForeArm
							{
								OFFSET -29.11090 0.00000 0.00000
								CHANNELS 3 Zrotation Xrotation Yrotation
								JOINT RightHand
								{
									OFFSET -24.65040 0.00000 0.00000
									CHANNELS 3 Zrotation Xrotation Yrotation
									JOINT RightHandThumb1
									{
										OFFSET -5.35114 -0.85590 3.97906
										CHANNELS 3 Zrotation Xrotation Yrotation
										JOINT RightHandThumb2
										{
											OFFSET -4.52789 0.00000 0.00000
											CHANNELS 3 Zrotation Xrotation Yrotation
											JOINT RightHandThumb3
											{
												OFFSET -2.46976 0.00000 0.00000
												CHANNELS 3 Zrotation Xrotation Yrotation
												End site
												{
													OFFSET 0.00000 0.00000 0.00000
												}
											}
										}
									}
									JOINT RightHandIndex1
									{
										OFFSET -14.26970 0.00000 2.88139
										CHANNELS 3 Zrotation Xrotation Yrotation
										JOINT RightHandIndex2
										{
											OFFSET -5.48836 0.00000 0.00000
											CHANNELS 3 Zrotation Xrotation Yrotation
											JOINT RightHandIndex3
											{
												OFFSET -3.01859 0.00000 0.00000
												CHANNELS 3 Zrotation Xrotation Yrotation
												End site
												{
													OFFSET 0.00000 0.00000 0.00000
												}
											}
										}
									}
									JOINT RightHandMiddle1
									{
										OFFSET -14.26970 0.00000 -0.09147
										CHANNELS 3 Zrotation Xrotation Yrotation
										JOINT RightHandMiddle2
										{
											OFFSET -6.17441 0.00000 0.00000
											CHANNELS 3 Zrotation Xrotation Yrotation
											JOINT RightHandMiddle3
											{
												OFFSET -3.56743 0.00000 0.00000
												CHANNELS 3 Zrotation Xrotation Yrotation
												End site
												{
													OFFSET 0.00000 0.00000 0.00000
												}
											}
										}
									}
									JOINT RightHandRing1
									{
										OFFSET -12.69180 0.00000 -3.06433
										CHANNELS 3 Zrotation Xrotation Yrotation
										JOINT RightHandRing2
										{
											OFFSET -5.62556 0.00000 0.00000
											CHANNELS 3 Zrotation Xrotation Yrotation
											JOINT RightHandRing3
											{
												OFFSET -3.56744 0.00000 0.00000
												CHANNELS 3 Zrotation Xrotation Yrotation
												End site
												{
													OFFSET 0.00000 0.00000 0.00000
												}
											}
										}
									}
									JOINT RightHandPinky1
									{
										OFFSET -11.11390 0.00000 -6.03719
										CHANNELS 3 Zrotation Xrotation Yrotation
										JOINT RightHandPinky2
										{
											OFFSET -4.52789 0.00000 0.00000
											CHANNELS 3 Zrotation Xrotation Yrotation
											JOINT RightHandPinky3
											{
												OFFSET -2.46976 0.00000 0.00000
												CHANNELS 3 Zrotation Xrotation Yrotation
												End site
												{
													OFFSET 0.00000 0.00000 0.00000
												}
											}
										}
									}
								}
							}
						}
					}
					JOINT LeftShoulder
					{
						OFFSET 0.01000 7.91373 5.19711
						CHANNELS 3 Zrotation Xrotation Yrotation
						JOINT LeftArm
						{
							OFFSET 18.41580 0.00000 0.00000
							CHANNELS 3 Zrotation Xrotation Yrotation
							JOINT LeftForeArm
							{
								OFFSET 29.11090 0.00000 0.00000
								CHANNELS 3 Zrotation Xrotation Yrotation
								JOINT LeftHand
								{
									OFFSET 24.65040 0.00000 0.00000
									CHANNELS 3 Zrotation Xrotation Yrotation
									JOINT LeftHandThumb1
									{
										OFFSET 5.35114 -0.85590 3.97906
										CHANNELS 3 Zrotation Xrotation Yrotation
										JOINT LeftHandThumb2
										{
											OFFSET 4.52789 0.00000 0.00000
											CHANNELS 3 Zrotation Xrotation Yrotation
											JOINT LeftHandThumb3
											{
												OFFSET 2.46977 0.00000 0.00000
												CHANNELS 3 Zrotation Xrotation Yrotation
												End site
												{
													OFFSET 0.00000 0.00000 0.00000
												}
											}
										}
									}
									JOINT LeftHandIndex1
									{
										OFFSET 14.26970 0.00000 2.88139
										CHANNELS 3 Zrotation Xrotation Yrotation
										JOINT LeftHandIndex2
										{
											OFFSET 5.48836 0.00000 0.00000
											CHANNELS 3 Zrotation Xrotation Yrotation
											JOINT LeftHandIndex3
											{
												OFFSET 3.01859 0.00000 0.00000
												CHANNELS 3 Zrotation Xrotation Yrotation
												End site
												{
													OFFSET 0.00000 0.00000 0.00000
												}
											}
										}
									}
									JOINT LeftHandMiddle1
									{
										OFFSET 14.26970 0.00000 -0.09147
										CHANNELS 3 Zrotation Xrotation Yrotation
										JOINT LeftHandMiddle2
										{
											OFFSET 6.17440 0.00000 0.00000
											CHANNELS 3 Zrotation Xrotation Yrotation
											JOINT LeftHandMiddle3
											{
												OFFSET 3.56744 0.00000 0.00000
												CHANNELS 3 Zrotation Xrotation Yrotation
												End site
												{
													OFFSET 0.00000 0.00000 0.00000
												}
											}
										}
									}
									JOINT LeftHandRing1
									{
										OFFSET 12.69180 0.00000 -3.06433
										CHANNELS 3 Zrotation Xrotation Yrotation
										JOINT LeftHandRing2
										{
											OFFSET 5.62556 0.00000 0.00000
											CHANNELS 3 Zrotation Xrotation Yrotation
											JOINT LeftHandRing3
											{
												OFFSET 3.56744 0.00000 0.00000
												CHANNELS 3 Zrotation Xrotation Yrotation
												End site
												{
													OFFSET 0.00000 0.00000 0.00000
												}
											}
										}
									}
									JOINT LeftHandPinky1
									{
										OFFSET 11.11390 0.00000 -6.03719
										CHANNELS 3 Zrotation Xrotation Yrotation
										JOINT LeftHandPinky2
										{
											OFFSET 4.52789 0.00000 0.00000
											CHANNELS 3 Zrotation Xrotation Yrotation
											JOINT LeftHandPinky3
											{
												OFFSET 2.46976 0.00000 0.00000
												CHANNELS 3 Zrotation Xrotation Yrotation
												End site
												{
													OFFSET 0.00000 0.00000 0.00000
												}
											}
										}
									}
								}
							}
						}
					}
					JOINT pCube4
					{
						OFFSET 0.00000 10.91090 1.10792
						CHANNELS 3 Zrotation Xrotation Yrotation
						End site
						{
							OFFSET 0.00000 0.00000 0.00000
						}
					}
				}
			}
		}
	}
	JOINT RightUpLeg
	{
		OFFSET -9.98441 0.00000 0.00000
		CHANNELS 3 Zrotation Xrotation Yrotation
		JOINT RightLeg
		{
			OFFSET 0.00000 -42.11790 0.00000
			CHANNELS 3 Zrotation Xrotation Yrotation
			JOINT RightFoot
			{
				OFFSET 0.00000 -45.00020 -0.00001
				CHANNELS 3 Zrotation Xrotation Yrotation
				JOINT RightForeFoot
				{
					OFFSET 0.00000 -3.74820 0.00000
					CHANNELS 3 Zrotation Xrotation Yrotation
					JOINT RightToeBase
					{
						OFFSET 0.00000 0.06325 14.43120
						CHANNELS 3 Zrotation Xrotation Yrotation
						End site
						{
							OFFSET 0.00000 0.00000 0.00000
						}
					}
				}
			}
		}
	}
	JOINT LeftUpLeg
	{
		OFFSET 9.98441 0.00000 0.00000
		CHANNELS 3 Zrotation Xrotation Yrotation
		JOINT LeftLeg
		{
			OFFSET 0.00000 -42.11800 0.00000
			CHANNELS 3 Zrotation Xrotation Yrotation
			JOINT LeftFoot
			{
				OFFSET 0.00000 -45.00070 0.00000
				CHANNELS 3 Zrotation Xrotation Yrotation
				JOINT LeftForeFoot
				{
					OFFSET 0.00000 -3.74824 0.00000
					CHANNELS 3 Zrotation Xrotation Yrotation
					JOINT LeftToeBase
					{
						OFFSET 0.00000 0.06325 14.43110
						CHANNELS 3 Zrotation Xrotation Yrotation
						End site
						{
							OFFSET 0.00000 0.00000 0.00000
						}
					}
				}
			}
		}
	}
}
MOTION
Frames: 4
Frame Time: 0.050000
-0.022971053711146074 0.01400338831947646 -0.04398134900271418 0.009398618862789532 -0.001545554260168237 0.03615075008192868 -3.159746949592063 2.0462603049401125 -0.6942953591724277 -1.035020110184219 3.866565677430135 0.3935031365231107 -0.9567581821337208 -1.7889390965927965 -2.276067822146429 -0.8572635307849756 0.5722694189937381 -0.9154717318801773 -2.3517622340005655 13.639392201473868 5.410376908086114 -0.5754276906229091 -0.7861275178986818 11.611523031398775 -2.1146154362549505 -16.62716342474718 1.0253228033051955 -3.8915687421957617 1.5654644293855415 -13.223725672399686 72.97575933827014 20.275324249257135 10.275885125489253 11.60255692355967 5.604138694680296 70.71953056615358 18.14600003810082 -0.343506710931168 -3.647555677262193 4.571144162824492 -0.13536872339056516 -1.5574167144134248 -0.028130532205989135 0.01733268023979929 -56.281999857115935 -0.023716781957039447 -0.005309504491629878 -56.23693645633513 -38.76124365362725 0.0003127822204751757 0.02844059826565589 -0.04288748688843188 0.04913284849572676 -0.020033499368681523 0.017427560811825903 0.042802655087095326 -0.008193279893155046 -36.71686962346145 0.02174915960416938 -0.001409964261052961 -0.020918659894344556 0.04897291103599313 -0.03180997909712195 0.0265205278482546 -0.04860411951188966 0.016935494456051303 -19.767731213004467 -0.0013042788951429273 -0.0008165000857882941 0.03860074424325534 0.0013666165944324021 0.013333519820652838 0.04367564340366313 -0.03808115838962695 -0.038332099142285116 24.09272899506421 -0.006197435594241058 0.01446154859768989 28.84517158565973 -0.00801541017781633 -0.03185750635809648 28.829681381378713 0.037025107147826225 -0.029281154974654628 10.266124792020374 2.1863126598421925 12.35960871533144 -70.64883075771857 8.50834123234013 -28.665858672341546 -65.39595167869345 9.705056162124514 -92.1109904077463 -7.370169631717242 2.3748610405500257 -2.0643664010834537 -0.5087630002299728 0.05103631176192995 -8.172419131569688 -0.046799072757417536 0.014380713938264856 44.56402567760893 -0.04409288525004254 0.02291150519233244 44.577355599824614 12.436902047433213 -0.025706268718612677 0.002898230258285509 0.0009618411765980128 0.010544995241451261 0.008137530576395394 -0.01453132348082791 -0.03532419701818528 0.04687971459416047 11.091694403258982 0.03417796200743891 -0.026557566674548887 -0.033618914090704395 -0.0077674570205535694 0.037181302015254984 -0.03243702132864211 -0.002316258574486009 -0.012972293174968527 4.781311107442292 -0.0018008928132628246 0.02503015656516473 0.048683715923395855 0.015583422534651493 0.01071641670068668 -0.010557033547902474 0.007624325723592017 -0.020921545528171152 -5.61289852976648 -0.033344993087699844 0.01288734540044989 -6.724893249189405 0.00019050716901192763 0.04348615268341956 -6.711000089839409 0.02348868910798027 0.022287395928587826 -0.04005712285788936 -0.026139926144694882 0.0008388388255254114 8.075130553422634 3.5161141774356257 -19.195800651455507 -0.02759004176134211 10.38104216478674 0.05479386652379843 -5.669000295497239 -15.64266805457583 3.189650520642125 0.0014766147001960036 0.03834510078266856 -0.02287065674769504 -0.0180451415396655 4.719757388634534 -0.004117040837625492 12.42670664878215 -8.286071572911569 6.916786114866037 0.0027920449305840964 46.406557962046065 -0.00831601722969869 -4.304848448441839 -14.728183883880144 -3.876408527118835 -0.00653733739709818 0.04147422223276645 0.03613246139966251 -0.016799167879087255 -10.770776547899828 -0.0118453937979156 
0.04356871027347918 -0.012501962044464446 -0.02122016291726705 -0.015312457893365933 -0.013938805543039416 -0.026930810865678886 -3.139587574201423 2.1741353088031996 -0.6980743447367227 -1.0528826138830247 3.817632503038124 0.3781324039579681 -0.9520931072215518 -1.7493247257879883 -2.05681545770412 -0.8785043721384308 0.5616164552487025 -0.9182319492983958 -2.196759483956402 13.70069388322268 4.980684337392545 -0.556098312649527 -0.777642179296757 10.438058339555678 -1.9111170758127913 -16.602337826553864 0.9556804339154787 -4.149194090666462 1.609543971578401 -13.262301986284267 73.12009502715054 18.403037671098918 11.350870337901094 12.366384863501771 5.985200021931651 71.8817709322801 17.20546319054385 -0.3888845568815269 -3.381249423130084 4.531079767292673 -0.1145521046316511 -1.6180221426267094 0.02931878389026798 -0.04335904603628196 -56.27655912956221 -0.02031590197293445 0.025367347240980172 -56.220786203919936 -38.765765637155795 0.02383539490532769 0.033065751350594336 -0.03019834034793422 0.037343269882802094 0.018828108067107593 -0.04834914104125946 0.014062247576866988 -0.012429219861718207 -36.6544962906179 -0.04803322425787224 0.034428984235790085 0.041427087718483586 -0.04593281719040938 0.02435564772127589 -0.00870866297273288 0.030028480904969426 0.02352970470427314 -19.761641578329858 -0.014123047041439641 -0.010696365853321873 -0.012853518585019779 0.008769118367956097 -0.02314047153673339 0.03228046592515847 -0.021604299566819394 -0.028412160402602915 24.004534808053965 0.04969445312247464 0.03370248835075295 28.859800662476154 0.017590948868937976 0.01776387195146049 28.84345123572624 0.046934195381733414 -0.007701249171397531 10.131339762009203 2.1523467135160477 12.3643754872717 -70.50509451589406 8.188646145106084 -28.337520983635578 -64.08367925870049 10.204873562370254 -92.22458163535035 -6.966695618632795 2.7479018401834137 -2.3595553589303635 -0.4282141537891453 0.021159373740513958 -8.096223390982242 -0.012768977568910189 0.025283530137015207 44.589008805670446 -0.015258969030867943 -0.026875816382887493 44.559193704981 12.421623419502096 0.02386587134932107 -0.01633733342355803 -0.0001231800027357497 0.044585902607759166 -0.013952512108288006 0.03168525610650166 0.048828774364780204 -0.017791131995981518 11.1216335831735 -0.03874484161032689 -0.04474264912070958 -0.019132081865688617 0.030040776083763827 0.014075292115497951 -0.003332069623360272 -0.006891427438565478 -0.0010823199043096322 4.736014583388479 -0.04087397131657416 0.033866590355015054 0.04965582040894897 0.04047235335526438 -0.042468041484212606 -0.028089584663784747 -0.00926703955184078 -0.023637927795363643 -5.608903016053503 0.049810696685010716 -0.009018239496415118 -6.7007647868944185 0.008114957322156 -0.014008940701349856 -6.719492797366536 0.0007207383491923515 -0.028944115865646474 -0.02184272515755845 -0.013695181268340444 0.012697735310843795 8.043877955202651 3.471611284692913 -19.212687833141782 -0.012770687347272176 10.418998964675247 -0.010108711038853097 -5.609876848566049 -15.648266521264679 3.231668948532242 0.022056421589740107 0.045951494824849774 0.032443945744175855 -0.01755044660526777 4.686650812963544 -0.021036799851758485 12.463785384472125 -8.277583948544232 6.835692802002067 -0.04379884850082547 46.34942395046942 0.0076373097354012235 -4.356991837982767 -14.734975079573761 -3.846087014094012 -0.03928749525884857 0.04604884069828817 0.006882133685024774 0.0026099564544087993 -10.771554916537326 -0.005849069109171537 
0.0036518811892181516 -0.019692722684610402 -0.03635864230972426 0.019707715256234864 -0.03594404819005131 -0.00259596665140676 -3.035213450683608 2.1921901801465116 -0.6593549900079919 -1.0357646019269044 3.8239816422922837 0.3401661577564236 -1.0194830892000568 -1.7718620395115992 -2.004230753747246 -0.7579653470368712 0.49097106024143067 -0.8891357415700847 -1.9357649171288829 13.694027216972907 4.492444491866478 -0.5186264375649419 -0.7097110443421496 9.235099981056475 -1.821111722243766 -16.470798341991028 0.7939934421345364 -4.3772361389370396 1.7365367037080937 -13.32386121182287 72.99104062038232 16.868919281478355 12.120604776727433 12.906035705026742 5.983962606348183 72.1782790558588 16.30551568112716 -0.34537250210343295 -3.030752444588331 4.51483988790654 -0.15232491882000657 -1.6085487150524076 0.029988169721944215 -0.034476820610794406 -56.28280457896598 0.004404543958378368 0.004865492811486862 -56.21227926175198 -38.763341786870555 0.03817842876258062 -0.013262266023259181 -0.005330356443854968 -0.04187032135250047 0.012812637579787779 0.02557208926174611 0.044703513021230414 -0.019798509069019365 -36.677239502194176 -0.0004938881294781918 -0.005674114448175192 0.027322695104603695 0.00512327450542744 -0.006647115100911001 0.015673271307238185 0.02283593659245171 -0.028966066712816443 -19.80504867224719 0.008136361082317222 -0.043505950064713306 0.023190672705949614 -0.015468295430895153 -0.018787267212119055 0.010080051443701268 0.03842553502479431 0.009695749103457402 24.08651032745552 -0.0412160914027624 -0.03443405403002849 28.87452046801073 -0.036054874056855556 -0.02726868663992357 28.836130343572016 -0.04434614344427349 0.00390665332395483 9.906265792753064 2.1193520701510007 12.450064793002323 -70.14154760280536 8.812594447281253 -27.63680702608048 -60.792780824545915 10.509172166358946 -91.10108069086507 -6.588940513346426 3.0026009964773466 -2.5436207459251086 -0.4974360949344544 0.09618328686392946 -8.150947592097705 -0.004307649172219079 0.030704201982567594 44.59516918611986 0.030527193710489262 -0.02469628221309523 44.57896829257257 12.432709825005421 -0.006527137747512532 -0.026653466816521594 0.027444049853240858 0.02402623644828981 0.0017534215018478285 -0.016400880837642764 -0.041758646063628335 0.04745330942160514 11.126660786127216 0.02270299101995418 -0.02166277580735785 0.002334215153107861 -0.018872474904465 -0.02538822137571202 -0.025842542889178078 -0.028190331982421313 0.013581642999359485 4.746817859745631 0.04787051942051802 0.0422306884376776 0.006226238672336766 0.018608253063111597 0.017818624558578446 0.015702975247800344 -0.012736511354578022 0.002350515789575464 -5.572971967852096 0.02469481889381967 0.030549226400280863 -6.739557271997836 -0.017186102462681756 -0.02091444269956616 -6.763177310896891 -0.008209097869167162 -0.015727656503965026 0.04397488728810697 -0.013583917857793133 -0.027285812755594926 8.025490157361373 3.517852270340051 -19.260303556267502 -0.006496743404055752 10.38151692904759 0.009981620388177528 -5.645832004077545 -15.671979622212397 3.1718182485737367 0.01195837462374454 -0.044918968708835404 0.022924262936685997 0.012962367176490627 4.656495467894722 0.005914533561801801 12.418399921908076 -8.24584810389804 6.8968023959105755 0.03388706070206449 46.390940002814936 0.028216206167838653 -4.336161624713685 -14.726655227724303 -3.840546241436663 -0.04464101562562546 -0.003524133641764283 -0.002005404601496966 0.046072766337065925 -10.739959283256463 -0.014279235018874134 
0.0034711450996369967 0.0009221053351560755 -0.014752318928427897 0.032466724479662146 0.012225036854307305 -0.04916958950039878 -3.0716928294126986 2.1539369581650534 -0.7085992760833372 -1.1131790282959855 3.842961345603627 0.39748818444544715 -1.0165586172073104 -1.7724861695409972 -1.8697166597338852 -0.6758722193372798 0.5190878045409532 -0.8737681570521316 -1.8136153665725485 13.771529246845997 4.126232258815928 -0.5171405041865347 -0.7005577776357974 8.236328164662456 -1.664086842500158 -16.453693878918262 0.7314550698968073 -4.5102662971808645 1.7091613925393212 -13.364133026354827 72.91700492486997 16.521043926585843 12.141843242258464 12.063966607813352 5.765287900358626 69.84776005628562 15.569420595902985 -0.2863667965806172 -2.622595071950235 4.557772888548518 -0.1733531771741565 -1.5708793372498768 -0.04407977252286869 0.04130209767907838 -56.19640133757316 0.02264572610483457 -0.042003599582142136 -56.25034679749406 -38.75025753698569 -0.03607481093579439 0.017231163686762675 0.0208058696865182 0.028515375563898552 0.0022682628939585804 0.0377982225695308 -0.00380100475206013 0.04339787279837391 -36.71549026155526 0.02384553015350853 0.03641599851759805 -0.033719976626064685 -0.041746502850592435 0.01525771127720328 0.01319519212047282 -0.0023301385444874628 -0.0004949995473987064 -19.719393888740775 0.03531188311883931 -0.029191557907042868 -0.042355086464230446 0.04560026422093177 0.019956863154119188 0.027733777213951833 0.04878584735848049 0.0030140660911569563 24.098144661941372 0.016918706945064768 0.012241265418230535 28.912975092770356 -0.005073561350223685 0.03877996678012967 28.843474361966 0.00887048549536466 0.031970642191630115 9.666413630230638 2.07939659814732 12.495973900116137 -69.85334101962184 9.78121473473074 -26.870650610699634 -56.592800579973414 10.997207508618558 -88.4665189280066 -6.298823734816686 3.0395422809401613 -2.561936308579614 -0.464596744901452 0.05450958680990202 -8.12900923520347 -0.016013924753458322 -0.005030420382598976 44.54414774259467 0.01099002403676348 -0.017368982383273484 44.585649248221266 12.464464128385195 -0.03545566861160075 0.00896803160061794 0.02684969046395706 0.0007249225859042089 0.04074484870057435 -0.028908703746120836 0.03802762989689646 0.044416874441415864 11.118544669483143 -0.004992800737802421 0.0050586272296285015 0.025337724543594054 -0.045611879352176636 -0.04563947547153588 -0.03788775239492264 0.006368057656687841 0.012807551953891718 4.786439234411098 0.02627474525156465 -0.015402166283261624 -0.012800165340204159 0.017475961018454146 0.021856506509816916 0.04230007900269991 -0.015833136286579588 -0.031423466876408845 -5.620849620003312 0.03452763206281397 0.027451828238000076 -6.675608296992895 -0.0018898903106524113 -0.005698172912800867 -6.729649393270556 0.039256275501073905 0.030507223131692438 0.03183818809503911 0.025668366197582962 0.018180244006356115 8.016065069396692 3.465962822086049 -19.234315330255157 0.044151171907177295 10.415029800182342 0.0019991372660740706 -5.606979306246827 -15.659497677049705 3.223850284420254 -0.00938088547066142 -0.010963159289652784 -0.03658125285091825 -0.009070749328296669 4.722985200959132 0.0007106463130528524 12.434153805438978 -8.262816807760213 6.876994802022303 -0.014243719094910297 46.41040059443269 0.022200177864303578 -4.2880954764918995 -14.735827211751403 -3.796214672937378 0.019223723975099465 0.026812890213642387 0.006708118572208281 -0.01034401089712563 -10.7207447814512 0.04996567927126362 
